<?xml version="1.0" encoding="iso-8859-1"?>
<!-- Uploaded to: SVG Repo, www.svgrepo.com, Generator: SVG Repo Mixer Tools -->
<svg fill="#000000" version="1.1" id="Layer_1" xmlns="http://www.w3.org/2000/svg" xmlns:xlink="http://www.w3.org/1999/xlink" 
	 viewBox="0 0 472.615 472.615" xml:space="preserve">
<g>
	<g>
		<rect y="142.858" width="472.615" height="56.615"/>
	</g>
</g>
<g>
	<g>
		<path d="M423.385,75.4H49.231c-26.687,0-48.289,21.27-49.083,47.765h472.32C471.674,96.67,450.072,75.4,423.385,75.4z"/>
	</g>
</g>
<g>
	<g>
		<path d="M0,219.165v128.819c0,27.19,22.042,49.231,49.231,49.231h374.154c27.189,0,49.231-22.041,49.231-49.231V219.165H0z
			 M352.562,285.857h19.692v19.692h-19.692V285.857z M303.331,285.857h19.692v19.692h-19.692V285.857z M421.485,351.55H219.639
			v-19.692h201.846V351.55z M421.485,305.549h-19.692v-19.692h19.692V305.549z"/>
	</g>
</g>
</svg>